<svg xmlns="http://www.w3.org/2000/svg" viewBox="0 0 100 100"><defs><style>.cls-1{isolation:isolate;}.cls-2{fill:#fff;}.cls-2,.cls-3{stroke:#33302d;stroke-miterlimit:10;}.cls-3{fill:none;}.cls-4{fill:#4eb964;}.cls-5{fill:#25803f;}.cls-6{opacity:0.05;mix-blend-mode:color-burn;}</style></defs><title>simply_help_logo</title><g class="cls-1"><g id="Layer_1" data-name="Layer 1"><circle class="cls-2" cx="50" cy="50" r="40"/><path class="cls-3" d="M50,71A21,21,0,1,1,71,50,21,21,0,0,1,50,71Z"/><path class="cls-4" d="M50,91.46a41.63,41.63,0,0,1-10.6-1.37l-1-.26-.11-1c0-.14-.36-3.6,1.51-10.43,1.81-6.61,3.4-8.73,3.7-9.09l.61-.73.92.24a19.68,19.68,0,0,0,5,.64h.24a19.66,19.66,0,0,0,5-.64l.92-.24.61.73c.3.36,1.89,2.48,3.7,9.09C62.34,85.22,62,88.66,62,88.8l-.11,1-1,.26a41.64,41.64,0,0,1-10.6,1.37Z"/><path class="cls-5" d="M56,69.12l.41.49c.18.21,1.78,2.25,3.6,8.9s1.51,10.1,1.49,10.24l-.07.68-.67.18A41.14,41.14,0,0,1,50.26,91H50A41.14,41.14,0,0,1,39.52,89.6l-.67-.18-.07-.68c0-.14-.35-3.51,1.49-10.24s3.42-8.69,3.6-8.9l.41-.49.61.16a20.15,20.15,0,0,0,5.12.66h.24a20.14,20.14,0,0,0,5.12-.66l.61-.16M43.92,68l-.41.49-.41.49c-.31.37-2,2.57-3.79,9.27-1.89,6.91-1.54,10.47-1.52,10.61l.07.68.07.68.67.18.67.18A42.14,42.14,0,0,0,50,92h.26A42.14,42.14,0,0,0,61,90.57l.67-.18.67-.18.07-.69.07-.68c0-.14.38-3.67-1.52-10.61-1.84-6.71-3.48-8.9-3.8-9.28l-.41-.49L56.33,68l-.61.16-.61.16a19.14,19.14,0,0,1-4.86.63H50a19.16,19.16,0,0,1-4.86-.63l-.61-.16L43.92,68Z"/><path class="cls-4" d="M87.91,62a37.12,37.12,0,0,1-9.51-1.54c-6.61-1.81-8.73-3.4-9.09-3.7l-.73-.61.24-.92a20.68,20.68,0,0,0,0-10.22l-.24-.92.73-.61c.36-.3,2.48-1.89,9.09-3.7a37.1,37.1,0,0,1,9.51-1.54,8.82,8.82,0,0,1,.92,0l1,.12.27,1a42.7,42.7,0,0,1,0,21.47l-.26,1-1,.12A8.81,8.81,0,0,1,87.91,62Z"/><path class="cls-5" d="M87.91,38.78a8.58,8.58,0,0,1,.87,0l.68.08.18.66a42.2,42.2,0,0,1,0,21.21l-.17.66-.69.08a8.56,8.56,0,0,1-.86,0A36.61,36.61,0,0,1,78.53,60c-6.64-1.82-8.69-3.42-8.9-3.6L69.15,56l.16-.61a21.18,21.18,0,0,0,0-10.47l-.16-.61.49-.41c.21-.18,2.25-1.78,8.9-3.6a36.58,36.58,0,0,1,9.38-1.53m0-1a37.59,37.59,0,0,0-9.64,1.56c-6.7,1.83-8.9,3.48-9.27,3.8l-.49.41L68,44l.16.61.16.61a20.18,20.18,0,0,1,0,10l-.16.61-.16.61.49.41.49.41c.37.31,2.57,2,9.28,3.8a37.6,37.6,0,0,0,9.64,1.56,9.39,9.39,0,0,0,1,0l.69-.08.68-.08.17-.66L90.6,61a43.2,43.2,0,0,0,0-21.72l-.18-.67L90.24,38l-.67-.08-.68-.08a9.4,9.4,0,0,0-1,0Z"/><path class="cls-4" d="M12.09,61.78a8.82,8.82,0,0,1-.92,0l-1-.12-.27-1a42.69,42.69,0,0,1,0-21.47l.26-1,1-.12a8.82,8.82,0,0,1,.92,0,37.1,37.1,0,0,1,9.51,1.54c6.61,1.81,8.73,3.4,9.09,3.7l.73.61-.24.92a20.66,20.66,0,0,0,0,10.22l.24.92-.73.61c-.36.3-2.48,1.89-9.09,3.7A37.1,37.1,0,0,1,12.09,61.78Z"/><path class="cls-5" d="M12.09,38.53a36.58,36.58,0,0,1,9.38,1.53c6.64,1.82,8.69,3.42,8.9,3.6l.49.41-.16.61a21.15,21.15,0,0,0,0,10.47l.16.61-.49.41c-.21.18-2.25,1.78-8.9,3.6a36.58,36.58,0,0,1-9.38,1.53,8.57,8.57,0,0,1-.86,0l-.68-.08-.18-.66a42.19,42.19,0,0,1,0-21.21l.17-.66.69-.08a8.56,8.56,0,0,1,.86,0m0-1a9.38,9.38,0,0,0-1,0l-.69.08-.68.08-.17.66L9.4,39a43.19,43.19,0,0,0,0,21.72l.18.67.18.65.67.08.68.08a9.39,9.39,0,0,0,1,0,37.58,37.58,0,0,0,9.64-1.56c6.71-1.83,8.9-3.48,9.27-3.79l.49-.41.49-.41-.16-.61-.16-.61a20.15,20.15,0,0,1,0-10l.16-.61L32,43.7l-.49-.41L31,42.88c-.37-.31-2.57-2-9.27-3.79a37.58,37.58,0,0,0-9.64-1.56Z"/><path class="cls-4" d="M43.23,30.72c-.3-.36-1.89-2.48-3.7-9.09C37.67,14.81,38,11.35,38,11.2l.11-1,1-.26a41.63,41.63,0,0,1,10.6-1.37H50a41.64,41.64,0,0,1,10.6,1.37l1,.26.11,1c0,.14.37,3.57-1.51,10.43-1.81,6.61-3.4,8.73-3.7,9.09l-.61.73L55,31.2a19.66,19.66,0,0,0-5-.64h-.24a19.67,19.67,0,0,0-5,.64l-.92.24Z"/><path class="cls-5" d="M50,9A41.14,41.14,0,0,1,60.48,10.4l.67.18.07.68c0,.14.35,3.51-1.49,10.24s-3.42,8.69-3.6,8.9l-.41.49-.61-.16A20.14,20.14,0,0,0,50,30.06h-.24a20.15,20.15,0,0,0-5.12.66l-.61.16-.41-.49c-.18-.21-1.78-2.25-3.6-8.9s-1.51-10.1-1.49-10.24l.07-.68.67-.18A41.13,41.13,0,0,1,49.74,9H50m0-1h-.26A42.14,42.14,0,0,0,39,9.43l-.67.18-.67.18-.07.68-.07.68c0,.15-.37,3.7,1.52,10.61,1.83,6.71,3.48,8.9,3.79,9.27l.41.49.41.49.61-.16.61-.16a19.15,19.15,0,0,1,4.86-.63H50a19.14,19.14,0,0,1,4.86.63l.61.16.61.16.41-.49.41-.49c.31-.37,2-2.57,3.8-9.28,1.9-6.95,1.54-10.47,1.52-10.62l-.07-.68-.07-.69-.67-.18-.67-.18A42.15,42.15,0,0,0,50,8Z"/><path class="cls-6" d="M79.83,39.89l-.3-.89-.49.13h0l-.51.14A30.76,30.76,0,0,0,60.77,21.48l.14-.51h0l.13-.49-.88-.3a31.39,31.39,0,0,0-20.53.08l-.88.31.13.48h0l.14.51A30.83,30.83,0,0,0,21.56,39L21,38.9h0l-.48-.13-.31.88a31.38,31.38,0,0,0-.06,20.51l.3.88.48-.13h0l.51-.14A30.77,30.77,0,0,0,39.23,78.52l-.14.51h0l-.13.49.88.3a31.39,31.39,0,0,0,20.53-.08l.88-.31-.13-.48h0L61,78.43A30.84,30.84,0,0,0,78.42,61l.51.14h0l.48.13.31-.88a31.39,31.39,0,0,0,.1-20.51ZM57.29,69.14,57,68.74l-.23-.27L56.33,68l-.61.16-.61.16a19.14,19.14,0,0,1-4.86.63H50a19.16,19.16,0,0,1-4.86-.63l-.61-.16L43.92,68l-.41.49-.29.35-.32.4A20.56,20.56,0,0,1,30.79,57.1l.39-.32.31-.26.49-.41-.16-.61-.16-.61a20.15,20.15,0,0,1,0-10l.16-.61L32,43.7l-.49-.41-.25-.21-.39-.33A20.62,20.62,0,0,1,42.71,30.86l.32.39.22.27.41.49.61-.16.61-.16a19.15,19.15,0,0,1,4.86-.63H50a19.14,19.14,0,0,1,4.86.63l.61.16.61.16.41-.49.29-.35.32-.4A20.56,20.56,0,0,1,69.24,42.95l-.39.32-.33.28L68,44l.16.61.16.61a20.18,20.18,0,0,1,0,10l-.16.61-.16.61.49.41.24.2.39.33A20.63,20.63,0,0,1,57.29,69.14Z"/></g></g></svg>